<svg id="Capa_1" data-name="Capa 1" xmlns="http://www.w3.org/2000/svg" viewBox="0 0 512 512"><defs><style>.cls-1{fill:#959595;}</style></defs><path class="cls-1" d="M256,0C114.83,0,0,114.83,0,256S114.83,512,256,512,512,397.15,512,256,397.17,0,256,0Zm0,472.34c-119.27,0-216.34-97-216.34-216.34S136.73,39.66,256,39.66,472.34,136.71,472.34,256,375.27,472.34,256,472.34Z"/><path class="cls-1" d="M369.23,283.36l-99.15-99.14a19.81,19.81,0,0,0-28,0L143,283.36a19.83,19.83,0,0,0,28,28L256,226.26l85.27,85.07a19.77,19.77,0,1,0,28-28Z"/></svg>