<?xml version="1.0" encoding="utf-8"?>
<!-- Generator: Adobe Illustrator 25.0.0, SVG Export Plug-In . SVG Version: 6.00 Build 0)  -->
<!DOCTYPE svg PUBLIC "-//W3C//DTD SVG 1.1//EN" "http://www.w3.org/Graphics/SVG/1.1/DTD/svg11.dtd" [
	<!ENTITY ns_extend "http://ns.adobe.com/Extensibility/1.0/">
	<!ENTITY ns_ai "http://ns.adobe.com/AdobeIllustrator/10.0/">
	<!ENTITY ns_graphs "http://ns.adobe.com/Graphs/1.0/">
	<!ENTITY ns_vars "http://ns.adobe.com/Variables/1.0/">
	<!ENTITY ns_imrep "http://ns.adobe.com/ImageReplacement/1.0/">
	<!ENTITY ns_sfw "http://ns.adobe.com/SaveForWeb/1.0/">
	<!ENTITY ns_custom "http://ns.adobe.com/GenericCustomNamespace/1.0/">
	<!ENTITY ns_adobe_xpath "http://ns.adobe.com/XPath/1.0/">
]>
<svg version="1.1" id="Capa_1" xmlns:x="&ns_extend;" xmlns:i="&ns_ai;" xmlns:graph="&ns_graphs;"
	 xmlns="http://www.w3.org/2000/svg" xmlns:xlink="http://www.w3.org/1999/xlink" x="0px" y="0px" width="512px" height="512px"
	 viewBox="0 0 512 512" style="enable-background:new 0 0 512 512;" xml:space="preserve">
<metadata>
	<sfw  xmlns="&ns_sfw;">
		<slices></slices>
		<sliceSourceBounds  bottomLeftOrigin="true" height="512" width="512" x="0" y="0"></sliceSourceBounds>
	</sfw>
</metadata>
<g>
	<g>
		<path d="M256,512c141.2,0,256-114.8,256-256S397.2,0,256,0S0,114.9,0,256S114.8,512,256,512z M256,39.7
			c119.3,0,216.3,97,216.3,216.3S375.3,472.3,256,472.3c-119.3,0-216.3-97-216.3-216.3S136.7,39.7,256,39.7z"/>
	</g>
</g>
<g>
	<g>
		<path d="M142.8,228.6l99.1,99.1c7.7,7.7,20.2,7.7,28,0l99.1-99.1c6.4-7.4,6.4-18.4,0-25.8c-7.1-8.3-19.7-9.3-28-2.2L256,285.7
			l-85.3-85.1c-7.7-7.7-20.2-7.7-28,0C135.1,208.4,135.1,220.9,142.8,228.6z"/>
	</g>
</g>
</svg>
